<svg width="97" height="54" viewBox="0 0 97 54" fill="none" xmlns="http://www.w3.org/2000/svg">
<g clip-path="url(#clip0_410_92)">
<path d="M1.98438 38.6406C1.98438 36.901 2.3125 35.2812 2.96875 33.7812C3.625 32.2708 4.57292 30.9635 5.8125 29.8594C7.0625 28.7448 8.58333 27.8698 10.375 27.2344C12.1771 26.599 14.2135 26.2812 16.4844 26.2812C18.474 26.2812 20.2969 26.4844 21.9531 26.8906C23.6198 27.2865 25.1667 27.8958 26.5938 28.7188L24.3125 32.4688C23.8854 32.1875 23.3906 31.9375 22.8281 31.7188C22.276 31.5 21.6823 31.3177 21.0469 31.1719C20.4219 31.0156 19.7708 30.8958 19.0938 30.8125C18.4271 30.7292 17.7656 30.6875 17.1094 30.6875C15.526 30.6875 14.1146 30.8854 12.875 31.2812C11.6354 31.6667 10.5885 32.2135 9.73438 32.9219C8.89062 33.6198 8.24479 34.4583 7.79688 35.4375C7.35938 36.4062 7.14062 37.474 7.14062 38.6406C7.14062 39.849 7.36979 40.9583 7.82812 41.9688C8.28646 42.9792 8.94792 43.8542 9.8125 44.5938C10.6875 45.3229 11.75 45.8958 13 46.3125C14.2604 46.7188 15.6823 46.9219 17.2656 46.9219C17.9844 46.9219 18.6979 46.8698 19.4062 46.7656C20.1146 46.6615 20.7969 46.5208 21.4531 46.3438C22.1198 46.1562 22.7604 45.9375 23.375 45.6875C23.9896 45.4271 24.5625 45.1458 25.0938 44.8438L27.375 48.5938C26.0417 49.4479 24.5 50.1198 22.75 50.6094C21 51.0885 19.1406 51.3281 17.1719 51.3281C14.6615 51.3281 12.4583 51.0052 10.5625 50.3594C8.66667 49.7031 7.08333 48.8073 5.8125 47.6719C4.54167 46.526 3.58333 45.1823 2.9375 43.6406C2.30208 42.0885 1.98438 40.4219 1.98438 38.6406ZM41.4688 41.8594C41.4688 40.3906 41.7448 39.0677 42.2969 37.8906C42.849 36.7031 43.6094 35.6927 44.5781 34.8594C45.5573 34.0156 46.7135 33.3698 48.0469 32.9219C49.3906 32.4635 50.8438 32.2344 52.4062 32.2344C53.0729 32.2344 53.7292 32.276 54.375 32.3594C55.0312 32.4427 55.6562 32.5573 56.25 32.7031C56.8542 32.849 57.4167 33.026 57.9375 33.2344C58.4688 33.4323 58.9375 33.651 59.3438 33.8906V25.0781H63.9688V51H59.3438V49.2656C58.9375 49.5469 58.4583 49.8125 57.9062 50.0625C57.3542 50.3125 56.7604 50.5312 56.125 50.7188C55.4896 50.9062 54.8281 51.0521 54.1406 51.1562C53.4635 51.2708 52.7917 51.3281 52.125 51.3281C50.5625 51.3281 49.125 51.099 47.8125 50.6406C46.5104 50.1823 45.3906 49.5365 44.4531 48.7031C43.5156 47.8698 42.7812 46.875 42.25 45.7188C41.7292 44.5521 41.4688 43.2656 41.4688 41.8594ZM46.3281 41.8594C46.3281 42.599 46.474 43.2969 46.7656 43.9531C47.0677 44.6094 47.4948 45.1875 48.0469 45.6875C48.6094 46.1771 49.2812 46.5677 50.0625 46.8594C50.8542 47.1406 51.7396 47.2812 52.7188 47.2812C53.3438 47.2812 53.9688 47.224 54.5938 47.1094C55.2188 46.9844 55.8177 46.8125 56.3906 46.5938C56.974 46.375 57.5156 46.1094 58.0156 45.7969C58.526 45.4844 58.9688 45.1354 59.3438 44.75V38.3594C58.875 37.9844 58.3802 37.6667 57.8594 37.4062C57.3385 37.1458 56.8073 36.9323 56.2656 36.7656C55.724 36.599 55.1771 36.4792 54.625 36.4062C54.0729 36.3229 53.5365 36.2812 53.0156 36.2812C51.9531 36.2812 51.0052 36.4271 50.1719 36.7188C49.349 37 48.651 37.3906 48.0781 37.8906C47.5156 38.3906 47.0833 38.9792 46.7812 39.6562C46.4792 40.3333 46.3281 41.0677 46.3281 41.8594ZM68.7656 41.7188C68.7656 40.4688 69.0208 39.276 69.5312 38.1406C70.0417 36.9948 70.776 35.9844 71.7344 35.1094C72.6927 34.2344 73.8646 33.5365 75.25 33.0156C76.6458 32.4948 78.2292 32.2344 80 32.2344C81.7604 32.2344 83.3438 32.5 84.75 33.0312C86.1667 33.5521 87.3646 34.2708 88.3438 35.1875C89.3333 36.1042 90.0885 37.1823 90.6094 38.4219C91.1406 39.6615 91.4062 40.9896 91.4062 42.4062C91.4062 42.5833 91.401 42.776 91.3906 42.9844C91.3906 43.1823 91.3802 43.3646 91.3594 43.5312H73.9219C74.1198 44.0833 74.4375 44.5885 74.875 45.0469C75.3229 45.5052 75.8802 45.901 76.5469 46.2344C77.2135 46.5677 77.9844 46.8281 78.8594 47.0156C79.7344 47.1927 80.7031 47.2812 81.7656 47.2812C82.8281 47.2812 83.8854 47.1719 84.9375 46.9531C85.9896 46.724 86.9948 46.4375 87.9531 46.0938L89.5156 49.625C88.9115 49.9062 88.2969 50.1562 87.6719 50.375C87.0573 50.5833 86.4115 50.7604 85.7344 50.9062C85.0677 51.0417 84.3646 51.1458 83.625 51.2188C82.8958 51.2917 82.125 51.3281 81.3125 51.3281C79.2396 51.3281 77.4219 51.0781 75.8594 50.5781C74.2969 50.0781 72.9896 49.3958 71.9375 48.5312C70.8854 47.6667 70.0938 46.651 69.5625 45.4844C69.0312 44.3177 68.7656 43.0625 68.7656 41.7188ZM86.5 39.9219C86.3333 39.4115 86.0729 38.9375 85.7188 38.5C85.375 38.0521 84.9427 37.6667 84.4219 37.3438C83.901 37.0104 83.2969 36.75 82.6094 36.5625C81.9219 36.375 81.1667 36.2812 80.3438 36.2812C79.4688 36.2812 78.6719 36.3802 77.9531 36.5781C77.2344 36.776 76.6042 37.0417 76.0625 37.375C75.5208 37.7083 75.0677 38.0938 74.7031 38.5312C74.349 38.9688 74.0885 39.4323 73.9219 39.9219H86.5Z" fill="#1B2831"/>
<path d="M7.69629 17.4302C7.69629 16.3745 7.89469 15.4237 8.2915 14.5776C8.68831 13.7241 9.23486 12.9979 9.93115 12.3989C10.6349 11.7925 11.466 11.3283 12.4243 11.0063C13.3901 10.6769 14.4346 10.5122 15.5576 10.5122C16.0368 10.5122 16.5085 10.5422 16.9727 10.6021C17.4443 10.6619 17.8936 10.7443 18.3203 10.8491C18.7546 10.9539 19.1589 11.0812 19.5332 11.231C19.915 11.3732 20.252 11.5304 20.5439 11.7026V5.36865H23.8682V24H20.5439V22.7534C20.252 22.9556 19.9076 23.1465 19.5107 23.3262C19.1139 23.5059 18.6872 23.6631 18.2305 23.7979C17.7738 23.9326 17.2983 24.0374 16.8042 24.1123C16.3175 24.1947 15.8346 24.2358 15.3555 24.2358C14.2324 24.2358 13.1992 24.0711 12.2559 23.7417C11.32 23.4123 10.5151 22.9481 9.84131 22.3491C9.16748 21.7502 8.63965 21.0352 8.25781 20.2041C7.88346 19.3656 7.69629 18.4409 7.69629 17.4302ZM11.189 17.4302C11.189 17.9618 11.2938 18.4634 11.5034 18.9351C11.7205 19.4067 12.0275 19.8223 12.4243 20.1816C12.8286 20.5335 13.3115 20.8143 13.873 21.0239C14.4421 21.2261 15.0785 21.3271 15.7822 21.3271C16.2314 21.3271 16.6807 21.286 17.1299 21.2036C17.5791 21.1138 18.0096 20.9902 18.4214 20.833C18.8407 20.6758 19.23 20.4849 19.5894 20.2603C19.9562 20.0356 20.2744 19.7848 20.5439 19.5078V14.9146C20.207 14.645 19.8514 14.4167 19.4771 14.2295C19.1027 14.0423 18.7209 13.8888 18.3315 13.769C17.9422 13.6493 17.5492 13.5632 17.1523 13.5107C16.7555 13.4508 16.37 13.4209 15.9956 13.4209C15.2319 13.4209 14.5506 13.5257 13.9517 13.7354C13.3602 13.9375 12.8586 14.2183 12.4468 14.5776C12.0425 14.937 11.7318 15.36 11.5146 15.8467C11.2975 16.3333 11.189 16.8612 11.189 17.4302ZM27.3159 19.8223C27.3159 19.1859 27.4544 18.6056 27.7314 18.0815C28.0085 17.5575 28.424 17.1082 28.978 16.7339C29.5321 16.3521 30.2209 16.0601 31.0444 15.8579C31.8755 15.6483 32.8413 15.5435 33.9419 15.5435C34.758 15.5435 35.6152 15.6034 36.5137 15.7231C37.4196 15.8429 38.3517 16.0264 39.3101 16.2734C39.2726 15.8542 39.1453 15.4686 38.9282 15.1167C38.7111 14.7573 38.4079 14.4504 38.0186 14.1958C37.6367 13.9338 37.1725 13.7316 36.626 13.5894C36.0869 13.4471 35.473 13.376 34.7842 13.376C34.4098 13.376 33.998 13.3984 33.5488 13.4434C33.0996 13.4883 32.6354 13.5557 32.1562 13.6455C31.6771 13.7354 31.2017 13.8477 30.73 13.9824C30.2658 14.1172 29.8315 14.2782 29.4272 14.4653L28.4165 11.7363C28.9181 11.5566 29.4535 11.3919 30.0225 11.2422C30.599 11.0924 31.1867 10.9652 31.7856 10.8604C32.3846 10.748 32.9836 10.6619 33.5825 10.6021C34.1815 10.5422 34.7617 10.5122 35.3232 10.5122C37.8014 10.5122 39.6432 11.1449 40.8486 12.4102C42.054 13.6755 42.6567 15.6146 42.6567 18.2275V24H39.3325V22.7534C38.9881 22.9556 38.61 23.1465 38.1982 23.3262C37.7939 23.5059 37.3522 23.6631 36.873 23.7979C36.3939 23.9326 35.8773 24.0374 35.3232 24.1123C34.7767 24.1947 34.1965 24.2358 33.5825 24.2358C32.5493 24.2358 31.6396 24.1235 30.8535 23.8989C30.0749 23.6743 29.4235 23.3636 28.8994 22.9668C28.3753 22.57 27.9785 22.1058 27.709 21.5742C27.4469 21.0352 27.3159 20.4512 27.3159 19.8223ZM30.8198 19.71C30.8198 19.9271 30.876 20.1367 30.9883 20.3389C31.1006 20.5335 31.2803 20.7095 31.5273 20.8667C31.7744 21.0164 32.0889 21.14 32.4707 21.2373C32.86 21.3271 33.328 21.3721 33.8745 21.3721C34.4585 21.3721 35.0238 21.3197 35.5703 21.2148C36.1169 21.11 36.626 20.9715 37.0977 20.7993C37.5693 20.6271 37.9961 20.4287 38.3779 20.2041C38.7598 19.9795 39.078 19.7474 39.3325 19.5078V18.9238C38.8234 18.7816 38.318 18.6618 37.8164 18.5645C37.3223 18.4671 36.8468 18.3923 36.3901 18.3398C35.9409 18.2799 35.5142 18.2388 35.1099 18.2163C34.7131 18.1938 34.3649 18.1826 34.0654 18.1826C33.444 18.1826 32.9274 18.2238 32.5156 18.3062C32.1038 18.3885 31.7707 18.5008 31.5161 18.6431C31.2616 18.7778 31.0819 18.9388 30.9771 19.126C30.8722 19.3132 30.8198 19.5078 30.8198 19.71ZM45.2285 10.7368H49.0806L52.5283 18.7104L53.4268 20.9453L54.3252 18.7104L57.7729 10.7368H61.625L55.3472 24H51.5063L45.2285 10.7368Z" fill="#2962FF"/>
<path d="M29.0934 29L20 39L29.0934 49L31.3464 46.5223L24.5061 39L31.3464 31.4777L29.0934 29ZM40.9066 49L50 39L40.9066 29L38.6536 31.4777L45.4939 39L38.6536 46.5223L40.9066 49Z" fill="#A8CF45"/>
</g>
<defs>
<clipPath id="clip0_410_92">
<rect width="97" height="54" fill="white"/>
</clipPath>
</defs>
</svg>
