<svg width="331" height="65" viewBox="0 0 331 65" fill="none" xmlns="http://www.w3.org/2000/svg">
<path d="M213.36 29.264C214 29.904 214.32 30.688 214.32 31.616V45.44C214.32 46.368 214 47.152 213.36 47.792L211.776 49.376C211.136 50.016 210.352 50.336 209.424 50.336H200.64C199.36 50.336 198.72 49.696 198.72 48.416V17.792C198.72 16.512 199.36 15.872 200.64 15.872H201.168C202.448 15.872 203.088 16.512 203.088 17.792V24.8C203.088 26.08 203.728 26.72 205.008 26.72H209.424C210.352 26.72 211.136 27.04 211.776 27.68L213.36 29.264ZM205.008 31.088C203.728 31.088 203.088 31.728 203.088 33.008V44.048C203.088 45.328 203.728 45.968 205.008 45.968H208.032C209.312 45.968 209.952 45.328 209.952 44.048V33.008C209.952 31.728 209.312 31.088 208.032 31.088H205.008ZM227.991 38.384C229.271 38.384 229.911 37.744 229.911 36.464V28.64C229.911 27.36 230.551 26.72 231.831 26.72H232.359C233.639 26.72 234.279 27.36 234.279 28.64V49.856C234.279 50.784 233.959 51.568 233.319 52.208L231.735 53.792C231.095 54.432 230.311 54.752 229.383 54.752H220.983C219.703 54.752 219.063 54.112 219.063 52.832V52.304C219.063 51.024 219.703 50.384 220.983 50.384H227.991C229.271 50.384 229.911 49.744 229.911 48.464V44.672C229.911 43.392 229.271 42.752 227.991 42.752H223.527C222.599 42.752 221.815 42.432 221.175 41.792L219.591 40.208C218.951 39.568 218.631 38.784 218.631 37.856V28.64C218.631 27.36 219.271 26.72 220.551 26.72H221.079C222.359 26.72 222.999 27.36 222.999 28.64V36.464C222.999 37.744 223.639 38.384 224.919 38.384H227.991Z" fill="white"/>
<path d="M90.3678 27.416C91.5198 27.416 92.2078 27.992 92.4318 29.144L94.8798 41.48C95.1358 42.632 95.2798 43.208 95.3118 43.208H95.3598L98.5278 25.448C98.7198 24.296 99.4078 23.72 100.592 23.72H101.12C101.696 23.72 102.128 23.864 102.416 24.152C102.736 24.44 102.896 24.824 102.896 25.304C102.896 25.528 102.88 25.704 102.848 25.832L98.9118 45.8C98.6558 46.952 97.9678 47.528 96.8478 47.528H93.8238C92.6398 47.528 91.9518 46.936 91.7598 45.752L90.5118 37.544C90.3838 36.648 90.1918 36.2 89.9358 36.2C89.7118 36.2 89.5198 36.632 89.3598 37.496L88.1118 45.752C87.9198 46.936 87.2318 47.528 86.0478 47.528H82.9758C81.8558 47.528 81.1678 46.952 80.9118 45.8L76.8318 25.832C76.7998 25.704 76.7838 25.512 76.7838 25.256C76.7838 24.232 77.3758 23.72 78.5598 23.72H79.0878C80.3038 23.72 81.0078 24.296 81.1998 25.448L84.0798 41.48C84.1758 41.992 84.2558 42.392 84.3198 42.68C84.3838 42.968 84.4478 43.144 84.5118 43.208H84.6078L87.2478 29.144C87.4398 27.992 88.1438 27.416 89.3598 27.416H90.3678ZM107.913 17.384C108.393 16.904 108.889 16.664 109.401 16.664C109.913 16.664 110.409 16.904 110.889 17.384C111.369 17.864 111.609 18.36 111.609 18.872C111.609 19.384 111.369 19.88 110.889 20.36C110.409 20.84 109.913 21.08 109.401 21.08C108.889 21.08 108.393 20.84 107.913 20.36C107.433 19.88 107.193 19.384 107.193 18.872C107.193 18.36 107.433 17.864 107.913 17.384ZM107.241 25.64C107.241 24.36 107.881 23.72 109.161 23.72H109.641C110.921 23.72 111.561 24.36 111.561 25.64V45.512C111.561 46.792 110.921 47.432 109.641 47.432H109.161C107.881 47.432 107.241 46.792 107.241 45.512V25.64ZM127.924 43.064C129.204 43.064 129.844 43.704 129.844 44.984V45.512C129.844 46.792 129.204 47.432 127.924 47.432H124.612C123.684 47.432 122.9 47.112 122.26 46.472L120.676 44.888C120.036 44.248 119.716 43.464 119.716 42.536V29.96C119.716 29.352 119.556 28.888 119.236 28.568C118.916 28.216 118.452 28.04 117.844 28.04C116.564 28.04 115.924 27.4 115.924 26.12V25.64C115.924 25.032 116.084 24.568 116.404 24.248C116.756 23.896 117.236 23.72 117.844 23.72C118.452 23.72 118.916 23.56 119.236 23.24C119.556 22.888 119.716 22.408 119.716 21.8V20.072C119.716 18.792 120.356 18.152 121.636 18.152H122.164C123.444 18.152 124.084 18.792 124.084 20.072V21.8C124.084 23.08 124.724 23.72 126.004 23.72H127.924C129.204 23.72 129.844 24.36 129.844 25.64V26.12C129.844 27.4 129.204 28.04 127.924 28.04H126.004C124.724 28.04 124.084 28.68 124.084 29.96V41.144C124.084 42.424 124.724 43.064 126.004 43.064H127.924ZM135.117 47.48C133.837 47.48 133.197 46.84 133.197 45.56V14.984C133.197 13.704 133.837 13.064 135.117 13.064H135.645C136.925 13.064 137.565 13.704 137.565 14.984V21.8C137.565 23.08 138.205 23.72 139.485 23.72H143.901C144.829 23.72 145.613 24.04 146.253 24.68L147.837 26.264C148.477 26.904 148.797 27.688 148.797 28.616V45.56C148.797 46.84 148.157 47.48 146.877 47.48H146.349C145.069 47.48 144.429 46.84 144.429 45.56V30.008C144.429 28.728 143.789 28.088 142.509 28.088H139.485C138.205 28.088 137.565 28.728 137.565 30.008V45.56C137.565 46.84 136.925 47.48 135.645 47.48H135.117Z" fill="white"/>
<g filter="url(#filter0_d_102_2)">
<path d="M30.1066 32.4999L39.5466 22.9124C40.0432 22.405 40.322 21.7185 40.322 21.003C40.322 20.2875 40.0432 19.6011 39.5466 19.0937C39.2987 18.8398 39.0037 18.6383 38.6788 18.5008C38.3538 18.3633 38.0053 18.2925 37.6532 18.2925C37.3012 18.2925 36.9526 18.3633 36.6277 18.5008C36.3027 18.6383 36.0078 18.8398 35.7599 19.0937L24.4532 30.577C24.2033 30.8288 24.0049 31.1283 23.8695 31.4584C23.7341 31.7884 23.6644 32.1424 23.6644 32.4999C23.6644 32.8574 23.7341 33.2114 23.8695 33.5415C24.0049 33.8715 24.2033 34.1711 24.4532 34.4228L35.7599 46.0416C36.0091 46.2926 36.3046 46.4912 36.6295 46.626C36.9544 46.7607 37.3023 46.8291 37.6532 46.827C38.0042 46.8291 38.3521 46.7607 38.677 46.626C39.0019 46.4912 39.2974 46.2926 39.5466 46.0416C40.0432 45.5341 40.322 44.8477 40.322 44.1322C40.322 43.4167 40.0432 42.7303 39.5466 42.2228L30.1066 32.4999Z" fill="#A8CF45"/>
</g>
<g filter="url(#filter1_d_102_2)">
<path d="M68.1646 30.577L56.6812 19.0937C56.4295 18.8398 56.1299 18.6383 55.7999 18.5008C55.4699 18.3633 55.1159 18.2925 54.7583 18.2925C54.4008 18.2925 54.0468 18.3633 53.7168 18.5008C53.3867 18.6383 53.0872 18.8398 52.8354 19.0937C52.331 19.6011 52.0479 20.2875 52.0479 21.003C52.0479 21.7185 52.331 22.405 52.8354 22.9124L62.4229 32.4999L52.8354 42.0874C52.331 42.5948 52.0479 43.2813 52.0479 43.9968C52.0479 44.7123 52.331 45.3987 52.8354 45.9062C53.0885 46.1572 53.3886 46.3558 53.7186 46.4905C54.0486 46.6253 54.4019 46.6936 54.7583 46.6916C55.1148 46.6936 55.4681 46.6253 55.7981 46.4905C56.1281 46.3558 56.4282 46.1572 56.6812 45.9062L68.1646 34.4228C68.4184 34.1711 68.6199 33.8715 68.7574 33.5415C68.8949 33.2114 68.9657 32.8574 68.9657 32.4999C68.9657 32.1424 68.8949 31.7884 68.7574 31.4583C68.6199 31.1283 68.4184 30.8288 68.1646 30.577Z" fill="#A8CF45"/>
</g>
<g clip-path="url(#clip0_102_2)" filter="url(#filter2_d_102_2)">
<g filter="url(#filter3_d_102_2)">
<path d="M188.8 19.3749C186.812 17.3822 184.178 16.166 181.372 15.9459C178.566 15.7258 175.774 16.5164 173.5 18.1749C171.114 16.4005 168.145 15.5959 165.19 15.9231C162.235 16.2504 159.513 17.6852 157.574 19.9385C155.634 22.1919 154.62 25.0965 154.737 28.0675C154.853 31.0384 156.09 33.8549 158.2 35.9499L169.844 47.6124C170.819 48.572 172.132 49.1098 173.5 49.1098C174.868 49.1098 176.181 48.572 177.156 47.6124L188.8 35.9499C190.989 33.7473 192.218 30.768 192.218 27.6624C192.218 24.5569 190.989 21.5776 188.8 19.3749ZM186.156 33.3624L174.513 45.0062C174.38 45.14 174.222 45.2462 174.049 45.3187C173.875 45.3911 173.688 45.4285 173.5 45.4285C173.312 45.4285 173.125 45.3911 172.952 45.3187C172.778 45.2462 172.62 45.14 172.488 45.0062L160.844 33.3062C159.373 31.8031 158.55 29.7839 158.55 27.6812C158.55 25.5784 159.373 23.5593 160.844 22.0562C162.342 20.5768 164.363 19.7473 166.469 19.7473C168.574 19.7473 170.595 20.5768 172.094 22.0562C172.268 22.2319 172.475 22.3714 172.704 22.4666C172.932 22.5618 173.178 22.6108 173.425 22.6108C173.673 22.6108 173.918 22.5618 174.146 22.4666C174.375 22.3714 174.582 22.2319 174.756 22.0562C176.255 20.5768 178.276 19.7473 180.381 19.7473C182.487 19.7473 184.508 20.5768 186.006 22.0562C187.497 23.5396 188.347 25.5478 188.375 27.6506C188.403 29.7534 187.607 31.7836 186.156 33.3062V33.3624Z" fill="#F80000"/>
</g>
</g>
<path d="M314.453 36.4767C313.723 36.0578 313.22 35.569 312.943 35.0103C312.641 34.4517 312.516 33.6603 312.516 32.6595V28.6328C312.491 27.8879 312.44 27.4224 312.365 27.1664C312.289 26.9336 312.113 26.7474 311.836 26.5845C311.459 26.3517 310.729 26.2586 309.672 26.2586H309.245V23H310.301C312.289 23 313.623 23.0233 314.277 23.1164C314.956 23.1862 315.56 23.3724 316.064 23.6983C316.642 24.0474 317.07 24.5129 317.322 25.0948C317.599 25.7 317.724 26.4681 317.724 27.4457V32.1241C317.724 32.9853 317.85 33.6371 318.152 34.0328C318.429 34.4517 318.907 34.731 319.586 34.8707V38.106C318.907 38.269 318.429 38.525 318.152 38.944C317.85 39.3629 317.724 39.9914 317.724 40.8759V45.5543C317.724 46.5319 317.599 47.3 317.322 47.8819C317.07 48.4871 316.642 48.9526 316.064 49.3017C315.56 49.6043 315.007 49.8138 314.453 49.8836C313.874 49.9534 312.491 49.9767 310.301 50H309.245V46.7414H309.672C310.805 46.7414 311.534 46.625 311.912 46.3922C312.163 46.206 312.314 46.0198 312.39 45.7871C312.44 45.5543 312.491 45.0888 312.516 44.3672V40.3405C312.516 39.3164 312.641 38.525 312.943 37.9897C313.22 37.431 313.723 36.9422 314.453 36.4767ZM247.848 36.4767C248.603 36.9422 249.106 37.431 249.383 37.9897C249.659 38.525 249.81 39.3164 249.81 40.3405V44.3672C249.836 45.0888 249.861 45.5776 249.936 45.8103C250.012 46.0664 250.188 46.2526 250.465 46.4388C250.867 46.6483 251.572 46.7414 252.629 46.7414H253.056V50H252C249.81 49.9767 248.427 49.9534 247.873 49.8836C247.294 49.8138 246.766 49.6043 246.237 49.3017C245.659 48.9526 245.231 48.4871 244.979 47.8819C244.702 47.3 244.577 46.5319 244.577 45.5543V40.8759C244.577 39.9914 244.451 39.3629 244.174 38.944C243.897 38.525 243.394 38.269 242.715 38.106V34.8707C243.394 34.731 243.897 34.4517 244.174 34.0328C244.451 33.6371 244.577 32.9853 244.577 32.1241V27.4457C244.577 26.4681 244.702 25.7 244.979 25.0948C245.231 24.5129 245.659 24.0474 246.237 23.6983C246.766 23.3724 247.345 23.1862 248.024 23.1164C248.703 23.0233 250.012 23 252 23H253.056V26.2586H252.629C251.522 26.2586 250.767 26.375 250.414 26.631C250.163 26.794 249.987 27.0034 249.936 27.2129C249.861 27.4457 249.836 27.9112 249.81 28.6328V32.6595C249.81 33.6603 249.659 34.4517 249.383 35.0103C249.106 35.569 248.577 36.0578 247.848 36.4767Z" fill="#A8CF45"/>
<path d="M259.145 46.3224V26.8173H266.618C274.117 26.8173 277.841 29.9828 277.841 36.3371C277.841 39.363 276.834 41.7836 274.796 43.5992C272.733 45.4147 270.015 46.3224 266.618 46.3224H259.145ZM263.901 30.4017V42.7612H266.266C268.304 42.7612 269.914 42.1793 271.097 41.0388C272.255 39.8983 272.859 38.3388 272.859 36.3836C272.859 34.5216 272.28 33.0552 271.122 32.0078C269.94 30.9371 268.329 30.4017 266.216 30.4017H263.901Z" fill="#373435" stroke="#373435" stroke-width="0.0761857"/>
<path fill-rule="evenodd" clip-rule="evenodd" d="M293.467 26.5379C299.556 26.5379 304.488 31.1 304.488 36.7327C304.488 42.3655 299.556 46.9276 293.467 46.9276C287.377 46.9276 282.445 42.3655 282.445 36.7327C282.445 31.1 287.377 26.5379 293.467 26.5379ZM293.467 30.1224C297.417 30.1224 300.613 33.0784 300.613 36.7327C300.613 40.387 297.417 43.3431 293.467 43.3431C289.516 43.3431 286.32 40.387 286.32 36.7327C286.32 33.0784 289.516 30.1224 293.467 30.1224Z" fill="#373435" stroke="#373435" stroke-width="0.176367"/>
<path d="M298.16 38.4686L294.407 41.3914L300.742 48.3522L304.495 45.4295L298.16 38.4686Z" fill="#00AFEF"/>
<defs>
<filter id="filter0_d_102_2" x="-4" y="0" width="72" height="73" filterUnits="userSpaceOnUse" color-interpolation-filters="sRGB">
<feFlood flood-opacity="0" result="BackgroundImageFix"/>
<feColorMatrix in="SourceAlpha" type="matrix" values="0 0 0 0 0 0 0 0 0 0 0 0 0 0 0 0 0 0 127 0" result="hardAlpha"/>
<feOffset dy="4"/>
<feGaussianBlur stdDeviation="2"/>
<feColorMatrix type="matrix" values="0 0 0 0 0 0 0 0 0 0 0 0 0 0 0 0 0 0 0.25 0"/>
<feBlend mode="normal" in2="BackgroundImageFix" result="effect1_dropShadow_102_2"/>
<feBlend mode="normal" in="SourceGraphic" in2="effect1_dropShadow_102_2" result="shape"/>
</filter>
<filter id="filter1_d_102_2" x="24" y="0" width="73" height="73" filterUnits="userSpaceOnUse" color-interpolation-filters="sRGB">
<feFlood flood-opacity="0" result="BackgroundImageFix"/>
<feColorMatrix in="SourceAlpha" type="matrix" values="0 0 0 0 0 0 0 0 0 0 0 0 0 0 0 0 0 0 127 0" result="hardAlpha"/>
<feOffset dy="4"/>
<feGaussianBlur stdDeviation="2"/>
<feColorMatrix type="matrix" values="0 0 0 0 0 0 0 0 0 0 0 0 0 0 0 0 0 0 0.25 0"/>
<feBlend mode="normal" in2="BackgroundImageFix" result="effect1_dropShadow_102_2"/>
<feBlend mode="normal" in="SourceGraphic" in2="effect1_dropShadow_102_2" result="shape"/>
</filter>
<filter id="filter2_d_102_2" x="147" y="10" width="53" height="53" filterUnits="userSpaceOnUse" color-interpolation-filters="sRGB">
<feFlood flood-opacity="0" result="BackgroundImageFix"/>
<feColorMatrix in="SourceAlpha" type="matrix" values="0 0 0 0 0 0 0 0 0 0 0 0 0 0 0 0 0 0 127 0" result="hardAlpha"/>
<feOffset dy="4"/>
<feGaussianBlur stdDeviation="2"/>
<feColorMatrix type="matrix" values="0 0 0 0 0 0 0 0 0 0 0 0 0 0 0 0 0 0 0.25 0"/>
<feBlend mode="normal" in2="BackgroundImageFix" result="effect1_dropShadow_102_2"/>
<feBlend mode="normal" in="SourceGraphic" in2="effect1_dropShadow_102_2" result="shape"/>
</filter>
<filter id="filter3_d_102_2" x="150.728" y="15.8517" width="45.4905" height="41.2582" filterUnits="userSpaceOnUse" color-interpolation-filters="sRGB">
<feFlood flood-opacity="0" result="BackgroundImageFix"/>
<feColorMatrix in="SourceAlpha" type="matrix" values="0 0 0 0 0 0 0 0 0 0 0 0 0 0 0 0 0 0 127 0" result="hardAlpha"/>
<feOffset dy="4"/>
<feGaussianBlur stdDeviation="2"/>
<feColorMatrix type="matrix" values="0 0 0 0 0 0 0 0 0 0 0 0 0 0 0 0 0 0 0.25 0"/>
<feBlend mode="normal" in2="BackgroundImageFix" result="effect1_dropShadow_102_2"/>
<feBlend mode="normal" in="SourceGraphic" in2="effect1_dropShadow_102_2" result="shape"/>
</filter>
<clipPath id="clip0_102_2">
<rect width="45" height="45" fill="white" transform="translate(151 10)"/>
</clipPath>
</defs>
</svg>
