<svg width="249" height="67" viewBox="0 0 249 67" fill="none" xmlns="http://www.w3.org/2000/svg">
<g clip-path="url(#clip0_502_20)">
<path d="M105.882 1V10.75H103.294C102 10.75 102 13.1875 102 13.1875V53.8125C102.114 55.967 102.617 56.3548 103.941 56.25H105.882V66H109.118V56.25H111.706C112.818 55.7347 112.964 55.1023 113 53.8125V13.1875C112.942 12.0283 113 10.75 111.706 10.75H109.118V1H105.882Z" fill="#EDF2F7" stroke="#2962FF" stroke-width="3"/>
<path d="M226.7 43L217 54L226.7 65L229.103 62.2746L221.806 54L229.103 45.7254L226.7 43ZM239.3 65L249 54L239.3 43L236.897 45.7254L244.194 54L236.897 62.2746L239.3 65Z" fill="#A8CF45"/>
<path d="M32.1016 49.6484C32.1016 47.3438 32.5247 45.2344 33.3711 43.3203C34.2174 41.4062 35.4023 39.7656 36.9258 38.3984C38.4622 37.0182 40.2982 35.9505 42.4336 35.1953C44.582 34.4401 46.9583 34.0625 49.5625 34.0625C52.1536 34.0625 54.5234 34.4401 56.6719 35.1953C58.8203 35.9505 60.6562 37.0182 62.1797 38.3984C63.7161 39.7656 64.9076 41.4062 65.7539 43.3203C66.6003 45.2344 67.0234 47.3438 67.0234 49.6484C67.0234 51.7057 66.6849 53.6133 66.0078 55.3711C65.3438 57.1159 64.3997 58.6654 63.1758 60.0195L68.6641 65H60.8125L58.918 63.2812C57.5898 63.9844 56.1445 64.5182 54.582 64.8828C53.0195 65.2474 51.3464 65.4297 49.5625 65.4297C46.9583 65.4297 44.582 65.0456 42.4336 64.2773C40.2982 63.4961 38.4622 62.4089 36.9258 61.0156C35.4023 59.6224 34.2174 57.9622 33.3711 56.0352C32.5247 54.0951 32.1016 51.9661 32.1016 49.6484ZM38.293 49.6484C38.293 51.224 38.5729 52.6432 39.1328 53.9062C39.7057 55.1693 40.4935 56.25 41.4961 57.1484C42.5117 58.0339 43.7031 58.7174 45.0703 59.1992C46.4505 59.681 47.9479 59.9219 49.5625 59.9219C51.2943 59.9219 52.8763 59.6484 54.3086 59.1016L45.5586 51.1719H53.4102L58.7227 55.9961C59.3867 55.1497 59.901 54.1992 60.2656 53.1445C60.6432 52.0768 60.832 50.9115 60.832 49.6484C60.832 48.0729 60.5456 46.6602 59.9727 45.4102C59.3997 44.1602 58.612 43.1055 57.6094 42.2461C56.6068 41.3737 55.4154 40.7096 54.0352 40.2539C52.668 39.7982 51.1771 39.5703 49.5625 39.5703C47.9479 39.5703 46.4505 39.7982 45.0703 40.2539C43.7031 40.7096 42.5117 41.3737 41.4961 42.2461C40.4935 43.1055 39.7057 44.1602 39.1328 45.4102C38.5729 46.6602 38.293 48.0729 38.293 49.6484ZM73.1758 41.9336H78.9375V53.1836C78.9375 54.2513 79.0547 55.2279 79.2891 56.1133C79.5234 56.9857 79.9206 57.7344 80.4805 58.3594C81.0534 58.9844 81.8086 59.4727 82.7461 59.8242C83.6966 60.1628 84.875 60.332 86.2812 60.332C86.9453 60.332 87.6159 60.2604 88.293 60.1172C88.9831 59.974 89.6406 59.7786 90.2656 59.5312C90.8906 59.2708 91.4701 58.9648 92.0039 58.6133C92.5508 58.2617 93.0195 57.8776 93.4102 57.4609V41.9336H99.1914V65H93.4102V63.0273C91.9909 63.8737 90.5651 64.4792 89.1328 64.8438C87.7005 65.2083 86.3398 65.3906 85.0508 65.3906C82.9414 65.3906 81.1315 65.1367 79.6211 64.6289C78.1237 64.1211 76.8932 63.3854 75.9297 62.4219C74.9792 61.4453 74.2826 60.2539 73.8398 58.8477C73.3971 57.4284 73.1758 55.8138 73.1758 54.0039V41.9336ZM119.816 41.9531H125.598V43.9062C127.134 43.0339 128.599 42.4219 129.992 42.0703C131.398 41.7188 132.772 41.543 134.113 41.543C135.871 41.543 137.499 41.8034 138.996 42.3242C140.493 42.832 141.789 43.5938 142.883 44.6094C143.977 45.625 144.829 46.8945 145.441 48.418C146.066 49.9284 146.379 51.6797 146.379 53.6719V65H140.617V54.6094C140.617 53.3464 140.435 52.2201 140.07 51.2305C139.719 50.2279 139.204 49.388 138.527 48.7109C137.863 48.0208 137.049 47.5 136.086 47.1484C135.135 46.7839 134.068 46.6016 132.883 46.6016C132.258 46.6016 131.613 46.6667 130.949 46.7969C130.298 46.9271 129.654 47.1159 129.016 47.3633C128.391 47.5977 127.785 47.8971 127.199 48.2617C126.613 48.6133 126.079 49.0169 125.598 49.4727V65H119.816V41.9531ZM156.965 46.2891H151.398V41.9531H156.965V34.7852H162.746V41.9531H168.312V46.2891H162.746V65H156.965V46.2891ZM172.355 53.3984C172.355 51.8359 172.674 50.3451 173.312 48.9258C173.951 47.4935 174.868 46.2305 176.066 45.1367C177.264 44.043 178.729 43.1706 180.461 42.5195C182.206 41.8685 184.185 41.543 186.398 41.543C188.599 41.543 190.578 41.875 192.336 42.5391C194.107 43.1901 195.604 44.0885 196.828 45.2344C198.065 46.3802 199.009 47.7279 199.66 49.2773C200.324 50.8268 200.656 52.487 200.656 54.2578C200.656 54.4792 200.65 54.7201 200.637 54.9805C200.637 55.2279 200.624 55.4557 200.598 55.6641H178.801C179.048 56.3542 179.445 56.9857 179.992 57.5586C180.552 58.1315 181.249 58.6263 182.082 59.043C182.915 59.4596 183.879 59.7852 184.973 60.0195C186.066 60.2409 187.277 60.3516 188.605 60.3516C189.934 60.3516 191.255 60.2148 192.57 59.9414C193.885 59.6549 195.142 59.2969 196.34 58.8672L198.293 63.2812C197.538 63.6328 196.77 63.9453 195.988 64.2188C195.22 64.4792 194.413 64.7005 193.566 64.8828C192.733 65.0521 191.854 65.1823 190.93 65.2734C190.018 65.3646 189.055 65.4102 188.039 65.4102C185.448 65.4102 183.176 65.0977 181.223 64.4727C179.27 63.8477 177.635 62.9948 176.32 61.9141C175.005 60.8333 174.016 59.5638 173.352 58.1055C172.688 56.6471 172.355 55.0781 172.355 53.3984ZM194.523 51.1523C194.315 50.5143 193.99 49.9219 193.547 49.375C193.117 48.8151 192.577 48.3333 191.926 47.9297C191.275 47.513 190.52 47.1875 189.66 46.9531C188.801 46.7188 187.857 46.6016 186.828 46.6016C185.734 46.6016 184.738 46.7253 183.84 46.9727C182.941 47.2201 182.154 47.5521 181.477 47.9688C180.799 48.3854 180.233 48.8672 179.777 49.4141C179.335 49.9609 179.009 50.5404 178.801 51.1523H194.523ZM206.887 41.9531H212.668V45.2734C213.944 44.3229 215.292 43.5026 216.711 42.8125C218.13 42.1224 219.543 41.5951 220.949 41.2305L222.648 46.5234C220.422 46.7448 218.462 47.2461 216.77 48.0273C215.09 48.7956 213.723 49.8828 212.668 51.2891V65H206.887V41.9531Z" fill="#1B2831"/>
<path d="M53.4 51H45L61.2 65H69L53.4 51Z" fill="#2962FF"/>
<path d="M4.33594 2.47266H15.5273C18.7956 2.47266 21.6341 2.82422 24.043 3.52734C26.4518 4.23047 28.444 5.23958 30.0195 6.55469C31.6081 7.85677 32.7865 9.44531 33.5547 11.3203C34.3359 13.1823 34.7266 15.2786 34.7266 17.6094C34.7266 19.8229 34.3424 21.8737 33.5742 23.7617C32.806 25.6367 31.6341 27.2643 30.0586 28.6445C28.4831 30.0117 26.4909 31.0859 24.082 31.8672C21.6732 32.6354 18.8346 33.0195 15.5664 33.0195L4.33594 33V2.47266ZM17.0508 27.6484C18.8997 27.6484 20.5208 27.4141 21.9141 26.9453C23.3073 26.4635 24.4661 25.7865 25.3906 24.9141C26.3281 24.0417 27.0312 22.987 27.5 21.75C27.9688 20.513 28.2031 19.1328 28.2031 17.6094C28.2031 16.112 27.9688 14.7643 27.5 13.5664C27.0312 12.3555 26.3281 11.3333 25.3906 10.5C24.4661 9.65365 23.3073 9.0026 21.9141 8.54688C20.5208 8.09115 18.8997 7.86328 17.0508 7.86328H10.5273V27.6484H17.0508ZM39.1211 25.7344C39.1211 24.6276 39.362 23.6185 39.8438 22.707C40.3255 21.7956 41.0482 21.0143 42.0117 20.3633C42.9753 19.6992 44.1732 19.1914 45.6055 18.8398C47.0508 18.4753 48.7305 18.293 50.6445 18.293C52.0638 18.293 53.5547 18.3971 55.1172 18.6055C56.6927 18.8138 58.3138 19.1328 59.9805 19.5625C59.9154 18.8333 59.694 18.1628 59.3164 17.5508C58.9388 16.9258 58.4115 16.3919 57.7344 15.9492C57.0703 15.4935 56.263 15.1419 55.3125 14.8945C54.375 14.6471 53.3073 14.5234 52.1094 14.5234C51.4583 14.5234 50.7422 14.5625 49.9609 14.6406C49.1797 14.7188 48.3724 14.8359 47.5391 14.9922C46.7057 15.1484 45.8789 15.3438 45.0586 15.5781C44.2513 15.8125 43.4961 16.0924 42.793 16.418L41.0352 11.6719C41.9076 11.3594 42.8385 11.0729 43.8281 10.8125C44.8307 10.5521 45.8529 10.3307 46.8945 10.1484C47.9362 9.95312 48.9779 9.80339 50.0195 9.69922C51.0612 9.59505 52.0703 9.54297 53.0469 9.54297C57.3568 9.54297 60.5599 10.6432 62.6562 12.8438C64.7526 15.0443 65.8008 18.4167 65.8008 22.9609V33H60.0195V30.832C59.4206 31.1836 58.763 31.5156 58.0469 31.8281C57.3438 32.1406 56.5755 32.4141 55.7422 32.6484C54.9089 32.8828 54.0104 33.0651 53.0469 33.1953C52.0964 33.3385 51.0872 33.4102 50.0195 33.4102C48.2227 33.4102 46.6406 33.2148 45.2734 32.8242C43.9193 32.4336 42.7865 31.8932 41.875 31.2031C40.9635 30.513 40.2734 29.7057 39.8047 28.7812C39.349 27.8438 39.1211 26.8281 39.1211 25.7344ZM45.2148 25.5391C45.2148 25.9167 45.3125 26.2812 45.5078 26.6328C45.7031 26.9714 46.0156 27.2773 46.4453 27.5508C46.875 27.8112 47.4219 28.026 48.0859 28.1953C48.763 28.3516 49.5768 28.4297 50.5273 28.4297C51.543 28.4297 52.526 28.3385 53.4766 28.1562C54.4271 27.974 55.3125 27.7331 56.1328 27.4336C56.9531 27.1341 57.6953 26.7891 58.3594 26.3984C59.0234 26.0078 59.5768 25.6042 60.0195 25.1875V24.1719C59.1341 23.9245 58.2552 23.7161 57.3828 23.5469C56.5234 23.3776 55.6966 23.2474 54.9023 23.1562C54.1211 23.0521 53.3789 22.9805 52.6758 22.9414C51.9857 22.9023 51.3802 22.8828 50.8594 22.8828C49.7786 22.8828 48.8802 22.9544 48.1641 23.0977C47.4479 23.2409 46.8685 23.4362 46.4258 23.6836C45.9831 23.918 45.6706 24.1979 45.4883 24.5234C45.306 24.849 45.2148 25.1875 45.2148 25.5391ZM70.2734 9.93359H76.9727L82.9688 23.8008L84.5312 27.6875L86.0938 23.8008L92.0898 9.93359H98.7891L87.8711 33H81.1914L70.2734 9.93359ZM117.031 25.9297C118.594 26.8672 120.312 27.5573 122.188 28C124.062 28.4427 125.983 28.6641 127.949 28.6641C129.277 28.6641 130.384 28.5729 131.27 28.3906C132.155 28.2083 132.865 27.974 133.398 27.6875C133.932 27.401 134.31 27.0755 134.531 26.7109C134.753 26.3464 134.863 25.9753 134.863 25.5977C134.863 25.0508 134.622 24.582 134.141 24.1914C133.672 23.8008 132.891 23.6055 131.797 23.6055C131.289 23.6055 130.742 23.638 130.156 23.7031C129.57 23.7682 128.952 23.8398 128.301 23.918C127.663 23.9831 126.992 24.0482 126.289 24.1133C125.599 24.1784 124.896 24.2109 124.18 24.2109C122.617 24.2109 121.283 24.0417 120.176 23.7031C119.082 23.3646 118.19 22.9023 117.5 22.3164C116.81 21.7305 116.309 21.0404 115.996 20.2461C115.684 19.4388 115.527 18.5729 115.527 17.6484C115.527 16.4766 115.801 15.3958 116.348 14.4062C116.895 13.4167 117.676 12.5638 118.691 11.8477C119.707 11.1185 120.931 10.5521 122.363 10.1484C123.809 9.74479 125.417 9.54297 127.188 9.54297C128.112 9.54297 129.076 9.60156 130.078 9.71875C131.094 9.82292 132.09 9.96615 133.066 10.1484C134.043 10.3307 134.98 10.5456 135.879 10.793C136.777 11.0273 137.572 11.2812 138.262 11.5547L136.445 16.0469C134.974 15.5 133.503 15.0703 132.031 14.7578C130.573 14.4323 129.069 14.2695 127.52 14.2695C126.439 14.2695 125.521 14.3542 124.766 14.5234C124.023 14.6797 123.418 14.8945 122.949 15.168C122.48 15.4284 122.135 15.7344 121.914 16.0859C121.706 16.4245 121.602 16.7826 121.602 17.1602C121.602 17.4336 121.654 17.681 121.758 17.9023C121.875 18.1237 122.057 18.319 122.305 18.4883C122.565 18.6445 122.897 18.7682 123.301 18.8594C123.717 18.9375 124.225 18.9766 124.824 18.9766C125.371 18.9766 125.951 18.944 126.562 18.8789C127.174 18.8138 127.812 18.7487 128.477 18.6836C129.141 18.6055 129.824 18.5339 130.527 18.4688C131.243 18.4036 131.973 18.3711 132.715 18.3711C134.095 18.3711 135.299 18.5339 136.328 18.8594C137.37 19.1849 138.229 19.6406 138.906 20.2266C139.583 20.8125 140.091 21.5026 140.43 22.2969C140.768 23.0911 140.938 23.957 140.938 24.8945C140.938 26.1055 140.658 27.2318 140.098 28.2734C139.538 29.3151 138.704 30.2201 137.598 30.9883C136.491 31.7435 135.111 32.3359 133.457 32.7656C131.816 33.1953 129.915 33.4102 127.754 33.4102C126.426 33.4102 125.143 33.3255 123.906 33.1562C122.669 33 121.491 32.7852 120.371 32.5117C119.251 32.2253 118.197 31.8932 117.207 31.5156C116.23 31.138 115.339 30.7344 114.531 30.3047L117.031 25.9297Z" fill="#1B2831"/>
</g>
<defs>
<clipPath id="clip0_502_20">
<rect width="249" height="67" fill="white"/>
</clipPath>
</defs>
</svg>
