<?xml version="1.0" encoding="UTF-8"?>
<!DOCTYPE svg PUBLIC "-//W3C//DTD SVG 1.1//EN" "http://www.w3.org/Graphics/SVG/1.1/DTD/svg11.dtd">
<!-- Creator: CorelDRAW X8 -->
<svg xmlns="http://www.w3.org/2000/svg" xml:space="preserve" width="30.5536mm" height="11.5979mm" version="1.1" style="shape-rendering:geometricPrecision; text-rendering:geometricPrecision; image-rendering:optimizeQuality; fill-rule:evenodd; clip-rule:evenodd"
viewBox="0 0 3055 1160"
 xmlns:xlink="http://www.w3.org/1999/xlink">
 <defs>
  <style type="text/css">
   <![CDATA[
    .str1 {stroke:#373435;stroke-width:17.6399}
    .str0 {stroke:#373435;stroke-width:7.61995}
    .fil2 {fill:#373435}
    .fil3 {fill:#00AFEF}
    .fil1 {fill:#373435;fill-rule:nonzero}
    .fil0 {fill:#A8CF45;fill-rule:nonzero}
   ]]>
  </style>
 </defs>
 <g id="Capa_x0020_1">
  <metadata id="CorelCorpID_0Corel-Layer"/>
  <g id="_2786229824896">
   <path class="fil0" d="M2851 579c-29,-18 -49,-39 -60,-63 -12,-24 -17,-58 -17,-101l0 -173c-1,-32 -3,-52 -6,-63 -3,-10 -10,-18 -21,-25 -15,-10 -44,-14 -86,-14l-17 0 0 -140 42 0c79,0 132,1 158,5 27,3 51,11 71,25 23,15 40,35 50,60 11,26 16,59 16,101l0 201c0,37 5,65 17,82 11,18 30,30 57,36l0 139c-27,7 -46,18 -57,36 -12,18 -17,45 -17,83l0 201c0,42 -5,75 -16,100 -10,26 -27,46 -50,61 -20,13 -42,22 -64,25 -23,3 -78,4 -165,5l-42 0 0 -140 17 0c45,0 74,-5 89,-15 10,-8 16,-16 19,-26 2,-10 4,-30 5,-61l0 -173c0,-44 5,-78 17,-101 11,-24 31,-45 60,-65zm-2647 0c30,20 50,41 61,65 11,23 17,57 17,101l0 173c1,31 2,52 5,62 3,11 10,19 21,27 16,9 44,13 86,13l17 0 0 140 -42 0c-87,-1 -142,-2 -164,-5 -23,-3 -44,-12 -65,-25 -23,-15 -40,-35 -50,-61 -11,-25 -16,-58 -16,-100l0 -201c0,-38 -5,-65 -16,-83 -11,-18 -31,-29 -58,-36l0 -139c27,-6 47,-18 58,-36 11,-17 16,-45 16,-82l0 -201c0,-42 5,-75 16,-101 10,-25 27,-45 50,-60 21,-14 44,-22 71,-25 27,-4 79,-5 158,-5l42 0 0 140 -17 0c-44,0 -74,5 -88,16 -10,7 -17,16 -19,25 -3,10 -4,30 -5,61l0 173c0,43 -6,77 -17,101 -11,24 -32,45 -61,63z"/>
   <g>
    <path class="fil1 str0" d="M653 1002l0 -838 297 0c298,0 446,136 446,409 0,130 -40,234 -121,312 -82,78 -190,117 -325,117l-297 0zm189 -684l0 531 94 0c81,0 145,-25 192,-74 46,-49 70,-116 70,-200 0,-80 -23,-143 -69,-188 -47,-46 -111,-69 -195,-69l-92 0z"/>
    <path class="fil2 str1" d="M2017 152c242,0 438,196 438,438 0,242 -196,438 -438,438 -242,0 -438,-196 -438,-438 0,-242 196,-438 438,-438zm0 154c157,0 284,127 284,284 0,157 -127,284 -284,284 -157,0 -284,-127 -284,-284 0,-157 127,-284 284,-284z"/>
   </g>
   <rect class="fil3" transform="matrix(1.08089 -0.909925 0.590978 0.702018 2054.37 790.148)" width="138" height="426"/>
  </g>
 </g>
</svg>
